<svg xmlns="http://www.w3.org/2000/svg" viewBox="0 0 100 100">
  <defs>
    <linearGradient id="bg" x1="0%" y1="0%" x2="100%" y2="100%">
      <stop offset="0%" stop-color="#6366f1"/>
      <stop offset="100%" stop-color="#8b5cf6"/>
    </linearGradient>
    <linearGradient id="bulb" x1="0%" y1="0%" x2="100%" y2="100%">
      <stop offset="0%" stop-color="#fbbf24"/>
      <stop offset="100%" stop-color="#f59e0b"/>
    </linearGradient>
  </defs>
  <rect width="100" height="100" rx="20" fill="url(#bg)"/>
  <path d="M50 15C35 15 25 28 25 40C25 52 35 58 38 68L62 68C65 58 75 52 75 40C75 28 65 15 50 15Z" fill="url(#bulb)"/>
  <rect x="38" y="72" width="24" height="5" rx="2" fill="#d1d5db"/>
  <rect x="40" y="80" width="20" height="5" rx="2" fill="#d1d5db"/>
  <path d="M40 45C40 35 60 35 60 45C60 50 40 50 40 45Z" fill="none" stroke="#ea580c" stroke-width="3"/>
</svg>
